<mxfile host="app.diagrams.net" modified="2023-01-30T10:00:38.899Z" agent="5.0 (Windows NT 10.0; Win64; x64) AppleWebKit/537.36 (KHTML, like Gecko) Chrome/106.0.0.0 Safari/537.36" version="20.6.0" etag="V57m31n-HgmCsH4---0p" type="github" pages="3">
  <diagram id="FSbITR7onw__S531h8E6" name="第 1 页">
    <mxGraphModel dx="1038" dy="567" grid="1" gridSize="10" guides="1" tooltips="1" connect="1" arrows="1" fold="1" page="1" pageScale="1" pageWidth="827" pageHeight="1169" math="0" shadow="0">
      <root>
        <mxCell id="0" />
        <mxCell id="1" parent="0" />
        <mxCell id="9__WrIiutgGzIWvAf3rb-11" value="" style="rounded=0;whiteSpace=wrap;html=1;" vertex="1" parent="1">
          <mxGeometry x="185" y="130" width="460" height="100" as="geometry" />
        </mxCell>
        <mxCell id="9__WrIiutgGzIWvAf3rb-1" value="" style="endArrow=none;dashed=1;html=1;rounded=0;fillColor=#dae8fc;strokeColor=#000000;strokeWidth=2;" edge="1" parent="1">
          <mxGeometry width="50" height="50" relative="1" as="geometry">
            <mxPoint x="120" y="120" as="sourcePoint" />
            <mxPoint x="680" y="120" as="targetPoint" />
          </mxGeometry>
        </mxCell>
        <mxCell id="9__WrIiutgGzIWvAf3rb-2" value="" style="endArrow=none;dashed=1;html=1;rounded=0;fillColor=#dae8fc;strokeColor=#000000;strokeWidth=2;" edge="1" parent="1">
          <mxGeometry width="50" height="50" relative="1" as="geometry">
            <mxPoint x="120" y="260" as="sourcePoint" />
            <mxPoint x="680" y="260" as="targetPoint" />
          </mxGeometry>
        </mxCell>
        <mxCell id="9__WrIiutgGzIWvAf3rb-3" value="" style="endArrow=none;dashed=1;html=1;rounded=0;fillColor=#dae8fc;strokeColor=#000000;strokeWidth=2;" edge="1" parent="1">
          <mxGeometry width="50" height="50" relative="1" as="geometry">
            <mxPoint x="120" y="420" as="sourcePoint" />
            <mxPoint x="680" y="420" as="targetPoint" />
          </mxGeometry>
        </mxCell>
        <mxCell id="9__WrIiutgGzIWvAf3rb-4" value="" style="endArrow=none;dashed=1;html=1;rounded=0;fillColor=#dae8fc;strokeColor=#000000;strokeWidth=2;" edge="1" parent="1">
          <mxGeometry width="50" height="50" relative="1" as="geometry">
            <mxPoint x="120" y="570" as="sourcePoint" />
            <mxPoint x="680" y="570" as="targetPoint" />
          </mxGeometry>
        </mxCell>
        <mxCell id="9__WrIiutgGzIWvAf3rb-6" value="司机端" style="sketch=0;pointerEvents=1;shadow=0;dashed=0;html=1;strokeColor=none;fillColor=#505050;labelPosition=center;verticalLabelPosition=bottom;verticalAlign=top;outlineConnect=0;align=center;shape=mxgraph.office.devices.cell_phone_windows_phone_proportional;direction=east;" vertex="1" parent="1">
          <mxGeometry x="469" y="50" width="22" height="40" as="geometry" />
        </mxCell>
        <mxCell id="9__WrIiutgGzIWvAf3rb-8" value="用户接口层" style="text;html=1;align=center;verticalAlign=middle;resizable=0;points=[];autosize=1;strokeColor=none;fillColor=none;" vertex="1" parent="1">
          <mxGeometry x="80" y="60" width="80" height="30" as="geometry" />
        </mxCell>
        <mxCell id="9__WrIiutgGzIWvAf3rb-9" value="乘客端" style="sketch=0;pointerEvents=1;shadow=0;dashed=0;html=1;strokeColor=none;fillColor=#505050;labelPosition=center;verticalLabelPosition=bottom;verticalAlign=top;outlineConnect=0;align=center;shape=mxgraph.office.devices.cell_phone_windows_phone_proportional;direction=east;" vertex="1" parent="1">
          <mxGeometry x="310" y="50" width="22" height="40" as="geometry" />
        </mxCell>
        <mxCell id="9__WrIiutgGzIWvAf3rb-10" value="前端表现层" style="text;html=1;align=center;verticalAlign=middle;resizable=0;points=[];autosize=1;strokeColor=none;fillColor=none;" vertex="1" parent="1">
          <mxGeometry x="80" y="180" width="80" height="30" as="geometry" />
        </mxCell>
        <mxCell id="9__WrIiutgGzIWvAf3rb-12" value="主界面" style="rounded=0;whiteSpace=wrap;html=1;" vertex="1" parent="1">
          <mxGeometry x="200" y="140" width="80" height="30" as="geometry" />
        </mxCell>
        <mxCell id="9__WrIiutgGzIWvAf3rb-13" value="打车界面" style="rounded=0;whiteSpace=wrap;html=1;" vertex="1" parent="1">
          <mxGeometry x="200" y="185" width="80" height="30" as="geometry" />
        </mxCell>
        <mxCell id="9__WrIiutgGzIWvAf3rb-14" value="注册登录" style="rounded=0;whiteSpace=wrap;html=1;" vertex="1" parent="1">
          <mxGeometry x="310" y="140" width="80" height="30" as="geometry" />
        </mxCell>
        <mxCell id="9__WrIiutgGzIWvAf3rb-15" value="地址搜索" style="rounded=0;whiteSpace=wrap;html=1;" vertex="1" parent="1">
          <mxGeometry x="430" y="140" width="80" height="30" as="geometry" />
        </mxCell>
        <mxCell id="9__WrIiutgGzIWvAf3rb-16" value="订单管理" style="rounded=0;whiteSpace=wrap;html=1;" vertex="1" parent="1">
          <mxGeometry x="540" y="140" width="80" height="30" as="geometry" />
        </mxCell>
        <mxCell id="9__WrIiutgGzIWvAf3rb-17" value="个人中心界面" style="rounded=0;whiteSpace=wrap;html=1;" vertex="1" parent="1">
          <mxGeometry x="310" y="185" width="80" height="30" as="geometry" />
        </mxCell>
        <mxCell id="9__WrIiutgGzIWvAf3rb-18" value="评价界面" style="rounded=0;whiteSpace=wrap;html=1;" vertex="1" parent="1">
          <mxGeometry x="430" y="185" width="80" height="30" as="geometry" />
        </mxCell>
        <mxCell id="9__WrIiutgGzIWvAf3rb-19" value="消息界面" style="rounded=0;whiteSpace=wrap;html=1;" vertex="1" parent="1">
          <mxGeometry x="540" y="185" width="80" height="30" as="geometry" />
        </mxCell>
        <mxCell id="9__WrIiutgGzIWvAf3rb-20" value="业务逻辑层" style="text;html=1;align=center;verticalAlign=middle;resizable=0;points=[];autosize=1;strokeColor=none;fillColor=none;" vertex="1" parent="1">
          <mxGeometry x="80" y="310" width="80" height="30" as="geometry" />
        </mxCell>
        <mxCell id="9__WrIiutgGzIWvAf3rb-21" value="" style="rounded=0;whiteSpace=wrap;html=1;" vertex="1" parent="1">
          <mxGeometry x="190" y="270" width="460" height="130" as="geometry" />
        </mxCell>
        <mxCell id="9__WrIiutgGzIWvAf3rb-22" value="界面显示" style="rounded=0;whiteSpace=wrap;html=1;" vertex="1" parent="1">
          <mxGeometry x="200" y="280" width="80" height="30" as="geometry" />
        </mxCell>
        <mxCell id="9__WrIiutgGzIWvAf3rb-23" value="订单生成" style="rounded=0;whiteSpace=wrap;html=1;" vertex="1" parent="1">
          <mxGeometry x="290" y="280" width="80" height="30" as="geometry" />
        </mxCell>
        <mxCell id="9__WrIiutgGzIWvAf3rb-24" value="信息修改" style="rounded=0;whiteSpace=wrap;html=1;" vertex="1" parent="1">
          <mxGeometry x="380" y="280" width="80" height="30" as="geometry" />
        </mxCell>
        <mxCell id="9__WrIiutgGzIWvAf3rb-25" value="消息收发" style="rounded=0;whiteSpace=wrap;html=1;" vertex="1" parent="1">
          <mxGeometry x="470" y="280" width="80" height="30" as="geometry" />
        </mxCell>
        <mxCell id="9__WrIiutgGzIWvAf3rb-26" value="目的地查询" style="rounded=0;whiteSpace=wrap;html=1;" vertex="1" parent="1">
          <mxGeometry x="560" y="280" width="80" height="30" as="geometry" />
        </mxCell>
        <mxCell id="9__WrIiutgGzIWvAf3rb-28" value="注册" style="rounded=0;whiteSpace=wrap;html=1;" vertex="1" parent="1">
          <mxGeometry x="200" y="320" width="80" height="30" as="geometry" />
        </mxCell>
        <mxCell id="9__WrIiutgGzIWvAf3rb-29" value="登录" style="rounded=0;whiteSpace=wrap;html=1;" vertex="1" parent="1">
          <mxGeometry x="290" y="320" width="80" height="30" as="geometry" />
        </mxCell>
        <mxCell id="9__WrIiutgGzIWvAf3rb-30" value="预约打车" style="rounded=0;whiteSpace=wrap;html=1;" vertex="1" parent="1">
          <mxGeometry x="380" y="320" width="80" height="30" as="geometry" />
        </mxCell>
        <mxCell id="9__WrIiutgGzIWvAf3rb-31" value="规划路线" style="rounded=0;whiteSpace=wrap;html=1;" vertex="1" parent="1">
          <mxGeometry x="470" y="320" width="80" height="30" as="geometry" />
        </mxCell>
        <mxCell id="9__WrIiutgGzIWvAf3rb-32" value="评价" style="rounded=0;whiteSpace=wrap;html=1;" vertex="1" parent="1">
          <mxGeometry x="560" y="320" width="80" height="30" as="geometry" />
        </mxCell>
        <mxCell id="9__WrIiutgGzIWvAf3rb-33" value="计费" style="rounded=0;whiteSpace=wrap;html=1;" vertex="1" parent="1">
          <mxGeometry x="200" y="360" width="80" height="30" as="geometry" />
        </mxCell>
        <mxCell id="9__WrIiutgGzIWvAf3rb-34" value="规划路线" style="rounded=0;whiteSpace=wrap;html=1;" vertex="1" parent="1">
          <mxGeometry x="290" y="360" width="80" height="30" as="geometry" />
        </mxCell>
        <mxCell id="9__WrIiutgGzIWvAf3rb-35" value="派单" style="rounded=0;whiteSpace=wrap;html=1;" vertex="1" parent="1">
          <mxGeometry x="380" y="360" width="80" height="30" as="geometry" />
        </mxCell>
        <mxCell id="9__WrIiutgGzIWvAf3rb-36" value="支付" style="rounded=0;whiteSpace=wrap;html=1;" vertex="1" parent="1">
          <mxGeometry x="470" y="360" width="80" height="30" as="geometry" />
        </mxCell>
        <mxCell id="9__WrIiutgGzIWvAf3rb-37" value="修改数据库" style="rounded=0;whiteSpace=wrap;html=1;" vertex="1" parent="1">
          <mxGeometry x="560" y="360" width="80" height="30" as="geometry" />
        </mxCell>
        <mxCell id="9__WrIiutgGzIWvAf3rb-38" value="逻辑数据层" style="text;html=1;align=center;verticalAlign=middle;resizable=0;points=[];autosize=1;strokeColor=none;fillColor=none;" vertex="1" parent="1">
          <mxGeometry x="80" y="465" width="80" height="30" as="geometry" />
        </mxCell>
        <mxCell id="9__WrIiutgGzIWvAf3rb-39" value="" style="rounded=0;whiteSpace=wrap;html=1;" vertex="1" parent="1">
          <mxGeometry x="190" y="435" width="460" height="115" as="geometry" />
        </mxCell>
        <mxCell id="9__WrIiutgGzIWvAf3rb-41" value="乘客信息表" style="rounded=0;whiteSpace=wrap;html=1;" vertex="1" parent="1">
          <mxGeometry x="200" y="450" width="100" height="30" as="geometry" />
        </mxCell>
        <mxCell id="9__WrIiutgGzIWvAf3rb-42" value="司机信息表" style="rounded=0;whiteSpace=wrap;html=1;" vertex="1" parent="1">
          <mxGeometry x="310" y="450" width="100" height="30" as="geometry" />
        </mxCell>
        <mxCell id="9__WrIiutgGzIWvAf3rb-43" value="乘客位置表" style="rounded=0;whiteSpace=wrap;html=1;" vertex="1" parent="1">
          <mxGeometry x="430" y="450" width="100" height="30" as="geometry" />
        </mxCell>
        <mxCell id="9__WrIiutgGzIWvAf3rb-44" value="司机位置表" style="rounded=0;whiteSpace=wrap;html=1;" vertex="1" parent="1">
          <mxGeometry x="540" y="450" width="100" height="30" as="geometry" />
        </mxCell>
        <mxCell id="9__WrIiutgGzIWvAf3rb-45" value="订单记录表" style="rounded=0;whiteSpace=wrap;html=1;" vertex="1" parent="1">
          <mxGeometry x="200" y="500" width="100" height="30" as="geometry" />
        </mxCell>
        <mxCell id="9__WrIiutgGzIWvAf3rb-46" value="消息记录表" style="rounded=0;whiteSpace=wrap;html=1;" vertex="1" parent="1">
          <mxGeometry x="310" y="500" width="100" height="30" as="geometry" />
        </mxCell>
        <mxCell id="9__WrIiutgGzIWvAf3rb-47" value="乘客评价表" style="rounded=0;whiteSpace=wrap;html=1;" vertex="1" parent="1">
          <mxGeometry x="430" y="500" width="100" height="30" as="geometry" />
        </mxCell>
        <mxCell id="9__WrIiutgGzIWvAf3rb-48" value="出行信息表" style="rounded=0;whiteSpace=wrap;html=1;" vertex="1" parent="1">
          <mxGeometry x="540" y="500" width="100" height="30" as="geometry" />
        </mxCell>
        <mxCell id="9__WrIiutgGzIWvAf3rb-49" value="database" style="shape=datastore;whiteSpace=wrap;html=1;" vertex="1" parent="1">
          <mxGeometry x="291" y="595" width="60" height="60" as="geometry" />
        </mxCell>
        <mxCell id="9__WrIiutgGzIWvAf3rb-50" value="database" style="shape=datastore;whiteSpace=wrap;html=1;" vertex="1" parent="1">
          <mxGeometry x="470" y="595" width="60" height="60" as="geometry" />
        </mxCell>
        <mxCell id="9__WrIiutgGzIWvAf3rb-51" value="物理数据层" style="text;html=1;align=center;verticalAlign=middle;resizable=0;points=[];autosize=1;strokeColor=none;fillColor=none;" vertex="1" parent="1">
          <mxGeometry x="80" y="610" width="80" height="30" as="geometry" />
        </mxCell>
      </root>
    </mxGraphModel>
  </diagram>
  <diagram id="-TMbsEU2dpE93RC1JLOO" name="第 2 页">
    <mxGraphModel dx="1038" dy="567" grid="1" gridSize="10" guides="1" tooltips="1" connect="1" arrows="1" fold="1" page="1" pageScale="1" pageWidth="827" pageHeight="1169" math="0" shadow="0">
      <root>
        <mxCell id="0" />
        <mxCell id="1" parent="0" />
        <mxCell id="sL95GE75Ghpr4Poyr7Bd-25" value="" style="group" vertex="1" connectable="0" parent="1">
          <mxGeometry x="170" y="150" width="430" height="360" as="geometry" />
        </mxCell>
        <mxCell id="sL95GE75Ghpr4Poyr7Bd-10" value="" style="group" vertex="1" connectable="0" parent="sL95GE75Ghpr4Poyr7Bd-25">
          <mxGeometry x="90" width="250" height="170" as="geometry" />
        </mxCell>
        <mxCell id="sL95GE75Ghpr4Poyr7Bd-3" value="" style="rounded=0;whiteSpace=wrap;html=1;" vertex="1" parent="sL95GE75Ghpr4Poyr7Bd-10">
          <mxGeometry width="250" height="170" as="geometry" />
        </mxCell>
        <mxCell id="sL95GE75Ghpr4Poyr7Bd-4" value="前端表现层" style="rounded=0;whiteSpace=wrap;html=1;" vertex="1" parent="sL95GE75Ghpr4Poyr7Bd-10">
          <mxGeometry x="20" y="20" width="90" height="40" as="geometry" />
        </mxCell>
        <mxCell id="sL95GE75Ghpr4Poyr7Bd-6" value="业务逻辑层" style="rounded=0;whiteSpace=wrap;html=1;" vertex="1" parent="sL95GE75Ghpr4Poyr7Bd-10">
          <mxGeometry x="19" y="75" width="90" height="40" as="geometry" />
        </mxCell>
        <mxCell id="sL95GE75Ghpr4Poyr7Bd-7" value="逻辑数据层" style="rounded=0;whiteSpace=wrap;html=1;" vertex="1" parent="sL95GE75Ghpr4Poyr7Bd-10">
          <mxGeometry x="130" y="20" width="90" height="40" as="geometry" />
        </mxCell>
        <mxCell id="sL95GE75Ghpr4Poyr7Bd-8" value="物理数据层" style="rounded=0;whiteSpace=wrap;html=1;" vertex="1" parent="sL95GE75Ghpr4Poyr7Bd-10">
          <mxGeometry x="130" y="75" width="90" height="40" as="geometry" />
        </mxCell>
        <mxCell id="sL95GE75Ghpr4Poyr7Bd-9" value="主要功能模块" style="text;html=1;strokeColor=none;fillColor=none;align=center;verticalAlign=middle;whiteSpace=wrap;rounded=0;" vertex="1" parent="sL95GE75Ghpr4Poyr7Bd-10">
          <mxGeometry x="72.5" y="130" width="105" height="30" as="geometry" />
        </mxCell>
        <mxCell id="sL95GE75Ghpr4Poyr7Bd-11" value="用户输入模块" style="rounded=0;whiteSpace=wrap;html=1;" vertex="1" parent="sL95GE75Ghpr4Poyr7Bd-25">
          <mxGeometry width="80" height="250" as="geometry" />
        </mxCell>
        <mxCell id="sL95GE75Ghpr4Poyr7Bd-12" value="界面输出模块" style="rounded=0;whiteSpace=wrap;html=1;" vertex="1" parent="sL95GE75Ghpr4Poyr7Bd-25">
          <mxGeometry x="350" width="80" height="250" as="geometry" />
        </mxCell>
        <mxCell id="sL95GE75Ghpr4Poyr7Bd-13" value="" style="rounded=0;whiteSpace=wrap;html=1;" vertex="1" parent="sL95GE75Ghpr4Poyr7Bd-25">
          <mxGeometry x="90" y="180" width="250" height="70" as="geometry" />
        </mxCell>
        <mxCell id="sL95GE75Ghpr4Poyr7Bd-14" value="" style="rounded=0;whiteSpace=wrap;html=1;" vertex="1" parent="sL95GE75Ghpr4Poyr7Bd-25">
          <mxGeometry y="270" width="430" height="90" as="geometry" />
        </mxCell>
        <mxCell id="sL95GE75Ghpr4Poyr7Bd-15" value="灾备恢复" style="rounded=0;whiteSpace=wrap;html=1;" vertex="1" parent="sL95GE75Ghpr4Poyr7Bd-25">
          <mxGeometry x="20" y="285" width="90" height="35" as="geometry" />
        </mxCell>
        <mxCell id="sL95GE75Ghpr4Poyr7Bd-16" value="支付" style="rounded=0;whiteSpace=wrap;html=1;" vertex="1" parent="sL95GE75Ghpr4Poyr7Bd-25">
          <mxGeometry x="100" y="210" width="70" height="30" as="geometry" />
        </mxCell>
        <mxCell id="sL95GE75Ghpr4Poyr7Bd-17" value="定位" style="rounded=0;whiteSpace=wrap;html=1;" vertex="1" parent="sL95GE75Ghpr4Poyr7Bd-25">
          <mxGeometry x="180" y="210" width="70" height="30" as="geometry" />
        </mxCell>
        <mxCell id="sL95GE75Ghpr4Poyr7Bd-18" value="导航" style="rounded=0;whiteSpace=wrap;html=1;" vertex="1" parent="sL95GE75Ghpr4Poyr7Bd-25">
          <mxGeometry x="260" y="210" width="70" height="30" as="geometry" />
        </mxCell>
        <mxCell id="sL95GE75Ghpr4Poyr7Bd-20" value="第三方API接口层" style="text;html=1;strokeColor=none;fillColor=none;align=center;verticalAlign=middle;whiteSpace=wrap;rounded=0;" vertex="1" parent="sL95GE75Ghpr4Poyr7Bd-25">
          <mxGeometry x="155" y="180" width="120" height="30" as="geometry" />
        </mxCell>
        <mxCell id="sL95GE75Ghpr4Poyr7Bd-21" value="病毒防护" style="rounded=0;whiteSpace=wrap;html=1;" vertex="1" parent="sL95GE75Ghpr4Poyr7Bd-25">
          <mxGeometry x="120" y="285" width="90" height="35" as="geometry" />
        </mxCell>
        <mxCell id="sL95GE75Ghpr4Poyr7Bd-22" value="入侵检测" style="rounded=0;whiteSpace=wrap;html=1;" vertex="1" parent="sL95GE75Ghpr4Poyr7Bd-25">
          <mxGeometry x="220" y="285" width="90" height="35" as="geometry" />
        </mxCell>
        <mxCell id="sL95GE75Ghpr4Poyr7Bd-23" value="系统维护" style="rounded=0;whiteSpace=wrap;html=1;" vertex="1" parent="sL95GE75Ghpr4Poyr7Bd-25">
          <mxGeometry x="320" y="285" width="90" height="35" as="geometry" />
        </mxCell>
        <mxCell id="sL95GE75Ghpr4Poyr7Bd-24" value="系统运维层" style="text;html=1;strokeColor=none;fillColor=none;align=center;verticalAlign=middle;whiteSpace=wrap;rounded=0;" vertex="1" parent="sL95GE75Ghpr4Poyr7Bd-25">
          <mxGeometry x="165" y="330" width="100" height="30" as="geometry" />
        </mxCell>
      </root>
    </mxGraphModel>
  </diagram>
  <diagram id="9X8tD-_-irz6ki8YV1RE" name="第 3 页">
    <mxGraphModel dx="1038" dy="567" grid="1" gridSize="10" guides="1" tooltips="1" connect="1" arrows="1" fold="1" page="1" pageScale="1" pageWidth="827" pageHeight="1169" math="0" shadow="0">
      <root>
        <mxCell id="0" />
        <mxCell id="1" parent="0" />
        <mxCell id="Eo9yVd_2tOtTtHxv8Wr_-1" value="" style="shape=mxgraph.cisco.people.running_man;html=1;pointerEvents=1;dashed=0;fillColor=#036897;strokeColor=#ffffff;strokeWidth=2;verticalLabelPosition=bottom;verticalAlign=top;align=center;outlineConnect=0;" vertex="1" parent="1">
          <mxGeometry x="90" y="230" width="53.55" height="60" as="geometry" />
        </mxCell>
        <mxCell id="Eo9yVd_2tOtTtHxv8Wr_-10" style="edgeStyle=orthogonalEdgeStyle;rounded=0;orthogonalLoop=1;jettySize=auto;html=1;strokeColor=#000000;strokeWidth=2;" edge="1" parent="1" source="Eo9yVd_2tOtTtHxv8Wr_-2" target="Eo9yVd_2tOtTtHxv8Wr_-5">
          <mxGeometry relative="1" as="geometry" />
        </mxCell>
        <mxCell id="Eo9yVd_2tOtTtHxv8Wr_-2" value="司机" style="shape=mxgraph.signs.transportation.car_2;html=1;pointerEvents=1;fillColor=#000000;strokeColor=none;verticalLabelPosition=bottom;verticalAlign=top;align=center;" vertex="1" parent="1">
          <mxGeometry x="90" y="390" width="100" height="33" as="geometry" />
        </mxCell>
        <mxCell id="Eo9yVd_2tOtTtHxv8Wr_-9" style="edgeStyle=orthogonalEdgeStyle;rounded=0;orthogonalLoop=1;jettySize=auto;html=1;entryX=0.38;entryY=0.02;entryDx=0;entryDy=0;entryPerimeter=0;strokeColor=#000000;strokeWidth=2;" edge="1" parent="1" source="Eo9yVd_2tOtTtHxv8Wr_-3" target="Eo9yVd_2tOtTtHxv8Wr_-5">
          <mxGeometry relative="1" as="geometry" />
        </mxCell>
        <mxCell id="Eo9yVd_2tOtTtHxv8Wr_-3" value="" style="sketch=0;aspect=fixed;pointerEvents=1;shadow=0;dashed=0;html=1;strokeColor=none;labelPosition=center;verticalLabelPosition=bottom;verticalAlign=top;align=center;fillColor=#00188D;shape=mxgraph.mscae.enterprise.android_phone" vertex="1" parent="1">
          <mxGeometry x="160" y="235" width="30" height="50" as="geometry" />
        </mxCell>
        <mxCell id="Eo9yVd_2tOtTtHxv8Wr_-4" value="乘客" style="text;html=1;strokeColor=none;fillColor=none;align=center;verticalAlign=middle;whiteSpace=wrap;rounded=0;" vertex="1" parent="1">
          <mxGeometry x="110" y="290" width="60" height="30" as="geometry" />
        </mxCell>
        <mxCell id="Eo9yVd_2tOtTtHxv8Wr_-5" value="互联网" style="outlineConnect=0;dashed=0;verticalLabelPosition=bottom;verticalAlign=top;align=center;html=1;shape=mxgraph.aws3.internet_3;fillColor=#D2D3D3;gradientColor=none;" vertex="1" parent="1">
          <mxGeometry x="290" y="300" width="79.5" height="54" as="geometry" />
        </mxCell>
        <mxCell id="Eo9yVd_2tOtTtHxv8Wr_-11" value="" style="aspect=fixed;html=1;points=[];align=center;image;fontSize=12;image=img/lib/azure2/networking/Azure_Firewall_Manager.svg;" vertex="1" parent="1">
          <mxGeometry x="430" y="310" width="70" height="60" as="geometry" />
        </mxCell>
        <mxCell id="Eo9yVd_2tOtTtHxv8Wr_-14" value="" style="endArrow=none;dashed=1;html=1;rounded=0;strokeColor=#000000;strokeWidth=2;exitX=1;exitY=0.7;exitDx=0;exitDy=0;exitPerimeter=0;entryX=-0.011;entryY=0.493;entryDx=0;entryDy=0;entryPerimeter=0;" edge="1" parent="1" source="Eo9yVd_2tOtTtHxv8Wr_-5" target="Eo9yVd_2tOtTtHxv8Wr_-11">
          <mxGeometry width="50" height="50" relative="1" as="geometry">
            <mxPoint x="390" y="320" as="sourcePoint" />
            <mxPoint x="440" y="270" as="targetPoint" />
          </mxGeometry>
        </mxCell>
        <mxCell id="Eo9yVd_2tOtTtHxv8Wr_-15" value="负载均衡" style="editableCssRules=.*;shape=image;verticalLabelPosition=bottom;labelBackgroundColor=#ffffff;verticalAlign=top;aspect=fixed;imageAspect=0;image=data:image/svg+xml,PHN2ZyB4bWxucz0iaHR0cDovL3d3dy53My5vcmcvMjAwMC9zdmciIHhtbG5zOnY9Imh0dHBzOi8vdmVjdGEuaW8vbmFubyIgd2lkdGg9IjIwIiBoZWlnaHQ9IjIwIiB2aWV3Qm94PSIwIDAgMjAgMjAiPiYjeGE7CTxzdHlsZSB0eXBlPSJ0ZXh0L2NzcyI+JiN4YTsJLnN0MHtmaWxsOiM0Mjg1ZjQ7fSYjeGE7CS5zdDF7ZmlsbDojNjY5ZGY2O30mI3hhOwkuc3Qye2ZpbGw6I2FlY2JmYTt9JiN4YTsJPC9zdHlsZT4mI3hhOwk8cGF0aCBjbGFzcz0ic3QxIiBkPSJNMTYgMTBoMnY0aC0yem0tNyAwaDJ2NEg5em0tNyAwaDJ2NEgyeiIvPiYjeGE7CTxwYXRoIGNsYXNzPSJzdDAiIGQ9Ik05IDVoMnY0SDl6Ii8+JiN4YTsJPHBhdGggY2xhc3M9InN0MSIgZD0iTTIgOWgxNnYySDJ6Ii8+JiN4YTsJPHBhdGggY2xhc3M9InN0MiIgZD0iTTQgMGgxMnY1SDR6Ii8+JiN4YTsJPHBhdGggY2xhc3M9InN0MSIgZD0iTTEwIDBoNnY1aC02eiIvPiYjeGE7CTxwYXRoIGNsYXNzPSJzdDIiIGQ9Ik0xNCAxNGg2djZoLTZ6TTAgMTRoNnY2SDB6Ii8+JiN4YTsJPHBhdGggY2xhc3M9InN0MSIgZD0iTTMgMTRoM3Y2SDN6Ii8+JiN4YTsJPHBhdGggY2xhc3M9InN0MiIgZD0iTTcgMTRoNnY2SDd6Ii8+JiN4YTsJPHBhdGggY2xhc3M9InN0MSIgZD0iTTEwIDE0aDN2NmgtM3ptNyAwaDN2NmgtM3oiLz4mI3hhOzwvc3ZnPg==;" vertex="1" parent="1">
          <mxGeometry x="540" y="300" width="75" height="75" as="geometry" />
        </mxCell>
        <mxCell id="Eo9yVd_2tOtTtHxv8Wr_-16" value="" style="endArrow=none;dashed=1;html=1;rounded=0;strokeColor=#000000;strokeWidth=2;entryX=0;entryY=0.5;entryDx=0;entryDy=0;" edge="1" parent="1" source="Eo9yVd_2tOtTtHxv8Wr_-11" target="Eo9yVd_2tOtTtHxv8Wr_-15">
          <mxGeometry width="50" height="50" relative="1" as="geometry">
            <mxPoint x="390" y="320" as="sourcePoint" />
            <mxPoint x="440" y="270" as="targetPoint" />
          </mxGeometry>
        </mxCell>
        <mxCell id="Eo9yVd_2tOtTtHxv8Wr_-18" value="" style="endArrow=none;dashed=1;html=1;rounded=0;strokeColor=#000000;strokeWidth=2;exitX=0.75;exitY=0;exitDx=0;exitDy=0;" edge="1" parent="1" source="Eo9yVd_2tOtTtHxv8Wr_-17" target="Eo9yVd_2tOtTtHxv8Wr_-15">
          <mxGeometry width="50" height="50" relative="1" as="geometry">
            <mxPoint x="520" y="460" as="sourcePoint" />
            <mxPoint x="570" y="410" as="targetPoint" />
          </mxGeometry>
        </mxCell>
        <mxCell id="Eo9yVd_2tOtTtHxv8Wr_-21" value="" style="endArrow=none;dashed=1;html=1;rounded=0;strokeColor=#000000;strokeWidth=2;exitX=0.5;exitY=0;exitDx=0;exitDy=0;entryX=0.5;entryY=1;entryDx=0;entryDy=0;" edge="1" parent="1" source="Eo9yVd_2tOtTtHxv8Wr_-19" target="Eo9yVd_2tOtTtHxv8Wr_-15">
          <mxGeometry width="50" height="50" relative="1" as="geometry">
            <mxPoint x="498.4876844564392" y="462.53078885890227" as="sourcePoint" />
            <mxPoint x="558.482013893881" y="385" as="targetPoint" />
          </mxGeometry>
        </mxCell>
        <mxCell id="Eo9yVd_2tOtTtHxv8Wr_-22" value="" style="endArrow=none;dashed=1;html=1;rounded=0;strokeColor=#000000;strokeWidth=2;exitX=0.25;exitY=0;exitDx=0;exitDy=0;entryX=0.75;entryY=1;entryDx=0;entryDy=0;" edge="1" parent="1" source="Eo9yVd_2tOtTtHxv8Wr_-20" target="Eo9yVd_2tOtTtHxv8Wr_-15">
          <mxGeometry width="50" height="50" relative="1" as="geometry">
            <mxPoint x="550.5" y="460" as="sourcePoint" />
            <mxPoint x="568.75" y="385" as="targetPoint" />
          </mxGeometry>
        </mxCell>
        <mxCell id="Eo9yVd_2tOtTtHxv8Wr_-25" value="" style="group" vertex="1" connectable="0" parent="1">
          <mxGeometry x="500" y="490" width="162" height="80" as="geometry" />
        </mxCell>
        <mxCell id="Eo9yVd_2tOtTtHxv8Wr_-17" value="" style="aspect=fixed;perimeter=ellipsePerimeter;html=1;align=center;shadow=0;dashed=0;spacingTop=3;image;image=img/lib/active_directory/database_server.svg;" vertex="1" parent="Eo9yVd_2tOtTtHxv8Wr_-25">
          <mxGeometry width="41" height="50" as="geometry" />
        </mxCell>
        <mxCell id="Eo9yVd_2tOtTtHxv8Wr_-19" value="" style="aspect=fixed;perimeter=ellipsePerimeter;html=1;align=center;shadow=0;dashed=0;spacingTop=3;image;image=img/lib/active_directory/database_server.svg;" vertex="1" parent="Eo9yVd_2tOtTtHxv8Wr_-25">
          <mxGeometry x="61" width="41" height="50" as="geometry" />
        </mxCell>
        <mxCell id="Eo9yVd_2tOtTtHxv8Wr_-20" value="" style="aspect=fixed;perimeter=ellipsePerimeter;html=1;align=center;shadow=0;dashed=0;spacingTop=3;image;image=img/lib/active_directory/database_server.svg;" vertex="1" parent="Eo9yVd_2tOtTtHxv8Wr_-25">
          <mxGeometry x="121" width="41" height="50" as="geometry" />
        </mxCell>
        <mxCell id="Eo9yVd_2tOtTtHxv8Wr_-24" value="web服务器集群" style="text;html=1;strokeColor=none;fillColor=none;align=center;verticalAlign=middle;whiteSpace=wrap;rounded=0;" vertex="1" parent="Eo9yVd_2tOtTtHxv8Wr_-25">
          <mxGeometry x="19.75" y="50" width="122.5" height="30" as="geometry" />
        </mxCell>
        <mxCell id="Eo9yVd_2tOtTtHxv8Wr_-30" value="" style="group" vertex="1" connectable="0" parent="1">
          <mxGeometry x="286.75" y="470" width="86" height="90" as="geometry" />
        </mxCell>
        <mxCell id="Eo9yVd_2tOtTtHxv8Wr_-28" value="" style="aspect=fixed;perimeter=ellipsePerimeter;html=1;align=center;shadow=0;dashed=0;spacingTop=3;image;image=img/lib/active_directory/database_server.svg;" vertex="1" parent="Eo9yVd_2tOtTtHxv8Wr_-30">
          <mxGeometry x="41" y="15" width="41" height="50" as="geometry" />
        </mxCell>
        <mxCell id="Eo9yVd_2tOtTtHxv8Wr_-29" value="" style="aspect=fixed;perimeter=ellipsePerimeter;html=1;align=center;shadow=0;dashed=0;spacingTop=3;image;image=img/lib/active_directory/database_server.svg;" vertex="1" parent="Eo9yVd_2tOtTtHxv8Wr_-30">
          <mxGeometry width="41" height="50" as="geometry" />
        </mxCell>
        <mxCell id="Eo9yVd_2tOtTtHxv8Wr_-32" value="数据库集群" style="text;html=1;strokeColor=none;fillColor=none;align=center;verticalAlign=middle;whiteSpace=wrap;rounded=0;" vertex="1" parent="Eo9yVd_2tOtTtHxv8Wr_-30">
          <mxGeometry x="-4" y="60" width="90" height="30" as="geometry" />
        </mxCell>
        <mxCell id="Eo9yVd_2tOtTtHxv8Wr_-31" value="" style="endArrow=none;dashed=1;html=1;rounded=0;strokeColor=#000000;strokeWidth=2;entryX=0;entryY=0.5;entryDx=0;entryDy=0;exitX=1;exitY=0.5;exitDx=0;exitDy=0;" edge="1" parent="1" source="Eo9yVd_2tOtTtHxv8Wr_-28" target="Eo9yVd_2tOtTtHxv8Wr_-17">
          <mxGeometry width="50" height="50" relative="1" as="geometry">
            <mxPoint x="310" y="500" as="sourcePoint" />
            <mxPoint x="360" y="450" as="targetPoint" />
          </mxGeometry>
        </mxCell>
      </root>
    </mxGraphModel>
  </diagram>
</mxfile>
